<?xml version="1.0" standalone="no"?><!DOCTYPE svg PUBLIC "-//W3C//DTD SVG 1.1//EN" "http://www.w3.org/Graphics/SVG/1.1/DTD/svg11.dtd"><svg t="1506568431622" class="icon" style="" viewBox="0 0 1024 1024" version="1.1" xmlns="http://www.w3.org/2000/svg" p-id="4463" xmlns:xlink="http://www.w3.org/1999/xlink" width="16" height="16"><defs><style type="text/css"></style></defs><path d="M806.503622 545.813379a300.175543 300.175543 0 0 1-464.66127 251.746059l-38.830848 38.830847a352.968044 352.968044 0 0 0 174.520665 62.82744v70.244567h-87.260333v54.537708h226.440563v-54.101406h-87.260333v-70.244568a355.149553 355.149553 0 0 0 331.589263-353.840647v-33.595228h-54.537707z" fill="#8a8a8a" p-id="4464"></path><path d="M505.891777 734.731998a181.937793 181.937793 0 0 1-81.152109-19.633574l-39.703452 39.703451a236.039199 236.039199 0 0 0 120.855561 34.031529 238.657009 238.657009 0 0 0 238.657009-238.657009V395.289305l-54.101406 54.537708v100.785684a184.555603 184.555603 0 0 1-184.555603 184.119301zM324.826587 581.153813a182.810396 182.810396 0 0 1-3.054111-30.977418V238.657009A183.683 183.683 0 0 1 686.520665 218.150831l45.811674-45.811675A237.784406 237.784406 0 0 0 267.234768 238.657009v311.519386a235.602897 235.602897 0 0 0 13.08905 75.043886zM233.63954 672.777162a298.430337 298.430337 0 0 1-27.050703-126.963783v-30.977418H150.742224v30.977418a352.095441 352.095441 0 0 0 43.630166 167.103536zM131.544951 848.606732L854.060503 126.09118l38.263656 38.220026-722.515552 722.515552z" fill="#8a8a8a" p-id="4465"></path></svg>